<svg width="198" height="37" viewBox="0 0 198 37" fill="none" xmlns="http://www.w3.org/2000/svg">
<path d="M0.852273 36L6.64773 1.09091H30.1705L29.1477 7.17614H13.0057L11.642 15.4943H26.5739L25.5511 21.5795H10.6193L9.25568 29.9148H25.4659L24.4432 36H0.852273ZM42.3452 1.09091L46.402 27.6136H46.7259L59.5611 1.09091H67.7429L49.9134 36H40.402L34.1463 1.09091H42.3452ZM66.1491 36L71.9446 1.09091H95.4673L94.4446 7.17614H78.3026L76.9389 15.4943H91.8707L90.848 21.5795H75.9162L74.5526 29.9148H90.7628L89.7401 36H66.1491ZM130.534 1.09091L124.739 36H118.364L106.858 14.0284H106.585L102.92 36H95.5398L101.335 1.09091H107.812L119.267 23.0455H119.557L123.188 1.09091H130.534ZM134.28 7.17614L135.303 1.09091H163.973L162.95 7.17614H152.263L147.49 36H140.195L144.967 7.17614H134.28ZM196.214 19.0227C195.578 22.75 194.345 25.9148 192.516 28.517C190.697 31.1193 188.476 33.0966 185.851 34.4489C183.237 35.8011 180.419 36.4773 177.396 36.4773C174.226 36.4773 171.493 35.7557 169.197 34.3125C166.913 32.8693 165.26 30.7841 164.237 28.0568C163.214 25.3182 163.021 22.017 163.658 18.1534C164.271 14.4148 165.493 11.2443 167.322 8.64205C169.152 6.02841 171.385 4.03977 174.021 2.67614C176.658 1.30114 179.493 0.613635 182.527 0.613635C185.675 0.613635 188.391 1.34091 190.675 2.79545C192.97 4.25 194.624 6.35227 195.635 9.10227C196.658 11.8409 196.851 15.1477 196.214 19.0227ZM188.868 18.1534C189.266 15.7557 189.249 13.7443 188.817 12.1193C188.396 10.483 187.624 9.24432 186.499 8.40341C185.374 7.5625 183.953 7.14205 182.237 7.14205C180.374 7.14205 178.663 7.60795 177.107 8.53977C175.561 9.47159 174.254 10.8239 173.186 12.5966C172.129 14.358 171.396 16.5 170.987 19.0227C170.578 21.4318 170.589 23.4432 171.021 25.0568C171.464 26.6705 172.254 27.892 173.391 28.7216C174.538 29.5398 175.964 29.9489 177.669 29.9489C179.521 29.9489 181.214 29.4943 182.749 28.5852C184.294 27.6648 185.595 26.3295 186.652 24.5795C187.709 22.8182 188.447 20.6761 188.868 18.1534Z" fill="#A626B1"/>
</svg>
